<svg width="75" height="70" viewBox="0 0 75 70" fill="none" xmlns="http://www.w3.org/2000/svg">
<path d="M72.5315 14.9168V21.8012V22.1152V23.7573V24.0731V29.0064V29.942L71.6564 30.4519L66.8963 33.2309L65.2061 34.2169L51.6827 42.111L50.8333 42.6069L49.9925 43.0969V43.1069V44.074V45.055V45.0639V63.0339L44.232 66.3959V48.426V48.4169V46.469V46.459V40.7119V40.2759L45.5362 39.5149L49.9925 36.914L51.6827 35.927L65.2061 28.0335L66.3592 27.3608L66.8963 27.0468V25.7169V25.0906V20.7836V18.8274V18.2045V16.2466L65.2061 17.2333L64.6879 17.537L63.0114 18.5168L58.785 20.9826L57.1085 21.9607L51.6827 25.1267L49.9925 26.1133L44.232 29.4766L42.5436 30.4629L37.0954 33.6419L36.2855 34.115L35.4052 34.6289L34.6073 35.0939L28.4556 38.6849L28.4179 38.707L16.4354 45.7019L14.7452 46.6879V48.6449V49.823V51.78V63.681L8.98472 67.0429V50.957V50.05V48.4179V46.4609V43.6539V41.6969V34.851V32.8939V27.3642V26.4617L9.88903 25.9332L36.8998 10.1653L38.5763 9.1872L42.5436 6.87066V11.5003V13.3055L42.4114 13.3827L37.0954 16.4851L35.4052 17.4718L21.5884 25.5368L19.9119 26.5166L16.4354 28.5448L15.3972 29.1506L14.7452 29.5315V30.726V31.4889V38.335V40.2919L16.4354 39.305L22.9388 35.509L24.6153 34.5299L29.1283 31.8959L30.8065 30.917L35.4052 28.2325L37.0954 27.2459L42.5436 24.0662L44.232 23.0795L49.9925 19.718L51.6295 18.7622L51.6827 18.7948V18.7313L53.306 17.7841L57.5324 15.3166L59.2071 14.3385L65.2061 10.8379L66.8963 9.85127L72.5315 6.56179V12.9571V14.9168ZM37.0954 62.869V52.592V52.5829V50.6349V50.625V44.4419V42.485V36.546L42.1832 39.5149L42.5436 39.7249V41.2629V47.446V47.456V49.4029V49.413V66.0479L37.0954 62.869ZM64.6827 26.3827L51.6827 33.97L49.9925 34.957L44.232 38.3189L43.8597 38.537L42.5436 37.7679L37.962 35.0939L42.5436 32.42L44.232 31.4329L49.9925 28.0712L51.6827 27.0846L58.785 22.9388L64.6827 26.3827ZM65.2061 24.7303L60.4615 21.9607L65.2061 19.1758V24.7303ZM1.69021 63.1319V44.161V42.2029V30.72V28.7627V23.107L6.53435 25.9332L7.29451 26.3776V27.4483V33.8799V35.838V42.6829V44.6399V45.4739V47.4309V66.403L1.69021 63.1319ZM14.7452 14.6456L16.4354 13.6572L29.6585 5.9372L31.335 4.96081L35.5614 2.49328L41.1262 5.74157L36.8998 8.2074L35.2233 9.1872L16.4354 20.1556L14.7452 21.1422L14.402 21.3413L12.7255 22.3211L8.98472 24.5038L8.21255 24.9568L7.29451 24.4197L2.646 21.7068L14.7452 14.6456ZM49.9908 10.9152L51.6673 9.93707L65.2061 2.03512L65.34 1.95619L66.8963 2.86565L71.2051 5.37951L66.8963 7.89338L65.2061 8.88005L57.5324 13.3604L55.8542 14.3385L51.6827 16.7734L51.6295 16.8043L49.9925 17.7601L49.953 17.7841L44.232 21.1216L42.5436 22.1083L37.0954 25.288L35.4052 26.2746L29.1283 29.938L27.4535 30.917L22.9388 33.552L21.2623 34.5299L16.4354 37.348V31.713V30.502L17.0754 30.129L21.5884 27.4947L23.2649 26.5166L35.4052 19.4297L37.0954 18.443L42.5436 15.2634L44.0879 14.3608L44.232 14.4449V14.2767L45.7644 13.3827L49.9908 10.9152ZM72.8816 4.40142L72.5315 4.19551L67.0164 0.978101L66.8963 0.907737L65.34 9.93238e-06L65.2061 0.0772277L63.6635 0.978101L49.9908 8.95898L48.3143 9.93707L44.232 12.3205V7.55533V5.88572V5.59743L42.801 4.76177L42.5436 4.61075L37.2361 1.51346L35.5614 0.535373L33.8832 1.51346L29.6585 3.98101L27.982 4.96081L16.4354 11.7011L14.7452 12.6877L8.98472 16.0493L7.29451 17.0377L7.15895 17.1149L5.48419 18.0947L1.69021 20.3083L0.969512 20.7287L0 21.2949V22.1203V23.2511V41.2169V43.174V62.145V64.1029L1.69021 65.0889L7.01138 68.1949L7.29451 68.36L8.68787 69.173L8.98472 68.9999L10.3643 68.1949L14.7452 65.638L16.4354 64.652V62.6939V52.767V50.8089V47.659L35.4052 36.5859V43.471V45.4289V51.612V51.622V53.5689V53.579V61.882V63.839L37.0954 64.826L42.0082 67.6939L42.5436 68.005L43.6864 68.673L44.232 68.353L45.3629 67.6939L49.9925 64.9909L51.6827 64.0049V62.0469V45.06V44.078L52.5184 43.5899L53.1413 43.226L53.1378 43.2189L65.2061 36.175L66.8963 35.188L72.5315 31.899L73.3329 31.4309L74.2217 30.912V29.9919V28.9549V25.0597V23.1018V22.7724V20.8145V13.9284V11.9722V7.14007V5.57512V5.18218L72.8816 4.40142" fill="#2C7B0C"/>
</svg>
